<?xml version="1.0" encoding="UTF-8"?>
<svg width="130px" height="85px" viewBox="0 0 130 85" version="1.1" xmlns="http://www.w3.org/2000/svg" xmlns:xlink="http://www.w3.org/1999/xlink">
    <title>icons-footer-social@1x</title>
    <g id="Dark-MVP" stroke="none" stroke-width="1" fill="none" fill-rule="evenodd">
        <g id="icons-footer-social">
            <rect id="Rectangle-path" fill="#192133" x="0" y="0" width="40" height="40" rx="3"></rect>
            <rect id="Rectangle-path" fill="#192133" x="45" y="0" width="40" height="40" rx="3"></rect>
            <path d="M24.9,20 L21.9,20 L21.9,31 L16.9,31 L16.9,20 L15,20 L15,16.3 L16.9,16.3 L16.9,13.9 C16.9,10.8 18.2,9 21.9,9 L25.6,9 L25.6,12.7 L23.4,12.7 C22,12.7 21.9,13.2 21.9,14.2 L21.9,16.3 L25.3,16.3 L24.9,20 L24.9,20 L24.9,20 Z M77.6,12.5 C76.6,12.9 75.6,13.2 74.6,13.3 C75.7,12.6 76.5,11.6 76.9,10.4 C75.9,11 74.7,11.4 73.5,11.7 C72.6,10.6 71.2,10 69.7,10 C66.8,10 64.5,12.4 64.5,15.3 C64.5,15.7 64.5,16.1 64.6,16.4 C60.2,16.2 56.4,14.1 53.8,11 C53.3,11.7 53.1,12.6 53.1,13.6 C53.1,15.4 54,17 55.4,18 C54.5,17.9 53.7,17.7 53,17.3 L53,17.4 C53,19.9 54.8,22 57.2,22.5 C56.8,22.6 56.3,22.7 55.9,22.7 C55.5,22.7 55.2,22.7 54.9,22.6 C55.5,24.7 57.5,26.2 59.8,26.3 C58,27.7 55.7,28.5 53.3,28.5 C52.8,28.5 52.4,28.5 52,28.4 C54.3,29.9 57.1,30.8 60,30.8 C69.7,30.8 75,22.8 75,15.9 L75,15.2 C76,14.4 76.9,13.5 77.6,12.5 L77.6,12.5 Z" id="Shape" fill="#B1C3D3"></path>
        </g>
    </g>
</svg>